ffmpeg started on 2025-06-07 at 16:41:10
Report written to "D:\Convert\FFMetrics\reports\psnr_report-6.txt"
Log level: 32
Command line:
ffmpeg -hide_banner -nostdin -i "G:\\\xc0\xed\xe8\xec\xe5\\\xce\xed\xe3\xee\xe8\xed\xe3\xe8\\!_36_\xce\xf1\xe5\xed\xfc_2024\\DreamCast\\\xd6\xe8\xea\xeb \xe8\xf1\xf2\xee\xf0\xe8\xe9 - \xcc\xe5\xe6\xf1\xe5\xe7\xee\xed\xfc\xe5 \xe8 \xf1\xe5\xe7\xee\xed \xec\xee\xed\xf1\xf2\xf0\xee\xe2\\DC_Monogatari_Series_Off_and_Monster_Season_07_Telegram_HEVC.mkv" -i "G:\\\xc0\xed\xe8\xec\xe5\\\xce\xed\xe3\xee\xe8\xed\xe3\xe8\\!_36_\xce\xf1\xe5\xed\xfc_2024\\DreamCast\\\xd6\xe8\xea\xeb \xe8\xf1\xf2\xee\xf0\xe8\xe9 - \xcc\xe5\xe6\xf1\xe5\xe7\xee\xed\xfc\xe5 \xe8 \xf1\xe5\xe7\xee\xed \xec\xee\xed\xf1\xf2\xf0\xee\xe2\\DC_Monogatari_Series_Off_and_Monster_Season_07_Telegram.mp4" -lavfi "[0:v]settb=AVTB,setpts=PTS-STARTPTS,format=pix_fmts=yuv420p10,fps=24000/1001,scale=1920:1080:flags=bicubic[main];[1:v]settb=AVTB,setpts=PTS-STARTPTS,format=pix_fmts=yuv420p,fps=24000/1001,scale=1920:1080:flags=bicubic[ref];[main][ref]psnr=eof_action=endall:stats_file='D\\:/Convert/FFMetrics/logs/psnr_logfile-6.txt'" -f null -
Input #0, matroska,webm, from 'G:\Аниме\Онгоинги\!_36_Осень_2024\DreamCast\Цикл историй - Межсезонье и сезон монстров\DC_Monogatari_Series_Off_and_Monster_Season_07_Telegram_HEVC.mkv':
  Metadata:
    COMPATIBLE_BRANDS: isomiso2avc1mp41
    MAJOR_BRAND     : isom
    MINOR_VERSION   : 512
    ENCODER         : Lavf61.7.100
  Duration: 00:23:41.70, start: -0.021000, bitrate: 970 kb/s
  Stream #0:0: Video: hevc (Main 10), yuv420p10le(tv, bt709, progressive), 1920x1080 [SAR 1:1 DAR 16:9], 23.98 fps, 23.98 tbr, 1k tbn (default)
      Metadata:
        HANDLER_NAME    : VideoHandler
        VENDOR_ID       : [0][0][0][0]
        ENCODER         : Lavc61.19.100 libx265
        BPS             : 773479
        DURATION        : 00:23:41.544708333
        NUMBER_OF_FRAMES: 34083
        NUMBER_OF_BYTES : 137441806
        _STATISTICS_WRITING_APP: mkvpropedit v66.0.0 ('Josie') 64-bit
        _STATISTICS_WRITING_DATE_UTC: 2025-06-05 11:23:28
        _STATISTICS_TAGS: BPS DURATION NUMBER_OF_FRAMES NUMBER_OF_BYTES
  Stream #0:1: Audio: aac (LC), 48000 Hz, stereo, fltp (default)
      Metadata:
        HANDLER_NAME    : SoundHandler
        VENDOR_ID       : [0][0][0][0]
        ENCODER         : Lavc61.19.100 aac
        BPS             : 193418
        DURATION        : 00:23:41.696000000
        NUMBER_OF_FRAMES: 66643
        NUMBER_OF_BYTES : 34372821
        _STATISTICS_WRITING_APP: mkvpropedit v66.0.0 ('Josie') 64-bit
        _STATISTICS_WRITING_DATE_UTC: 2025-06-05 11:23:28
        _STATISTICS_TAGS: BPS DURATION NUMBER_OF_FRAMES NUMBER_OF_BYTES
Input #1, mov,mp4,m4a,3gp,3g2,mj2, from 'G:\Аниме\Онгоинги\!_36_Осень_2024\DreamCast\Цикл историй - Межсезонье и сезон монстров\DC_Monogatari_Series_Off_and_Monster_Season_07_Telegram.mp4':
  Metadata:
    major_brand     : isom
    minor_version   : 512
    compatible_brands: isomiso2avc1mp41
    encoder         : Lavf60.16.100
  Duration: 00:23:41.66, start: 0.000000, bitrate: 3578 kb/s
  Stream #1:0[0x1](und): Video: h264 (High) (avc1 / 0x31637661), yuv420p(tv, bt709, progressive), 1920x1080 [SAR 1:1 DAR 16:9], 3431 kb/s, 23.98 fps, 23.98 tbr, 24k tbn (default)
      Metadata:
        handler_name    : VideoHandler
        vendor_id       : [0][0][0][0]
        encoder         : Lavc60.31.102 h264_qsv
  Stream #1:1[0x2](und): Audio: aac (HE-AACv2) (mp4a / 0x6134706D), 48000 Hz, stereo, fltp, 144 kb/s (default)
      Metadata:
        handler_name    : SoundHandler
        vendor_id       : [0][0][0][0]
Stream mapping:
  Stream #0:0 (hevc) -> settb:default
  Stream #1:0 (h264) -> settb:default
  psnr:default -> Stream #0:0 (wrapped_avframe)
  Stream #0:1 -> #0:1 (aac (native) -> pcm_s16le (native))
Output #0, null, to 'pipe:':
  Metadata:
    COMPATIBLE_BRANDS: isomiso2avc1mp41
    MAJOR_BRAND     : isom
    MINOR_VERSION   : 512
    encoder         : Lavf61.7.100
  Stream #0:0: Video: wrapped_avframe, yuv420p10le(tv, bt709, progressive), 1920x1080 [SAR 1:1 DAR 16:9], q=2-31, 200 kb/s, 23.98 fps, 23.98 tbn
      Metadata:
        encoder         : Lavc61.19.100 wrapped_avframe
  Stream #0:1: Audio: pcm_s16le, 48000 Hz, stereo, s16, 1536 kb/s (default)
      Metadata:
        HANDLER_NAME    : SoundHandler
        VENDOR_ID       : [0][0][0][0]
        _STATISTICS_TAGS: BPS DURATION NUMBER_OF_FRAMES NUMBER_OF_BYTES
        BPS             : 193418
        DURATION        : 00:23:41.696000000
        NUMBER_OF_FRAMES: 66643
        NUMBER_OF_BYTES : 34372821
        _STATISTICS_WRITING_APP: mkvpropedit v66.0.0 ('Josie') 64-bit
        _STATISTICS_WRITING_DATE_UTC: 2025-06-05 11:23:28
        encoder         : Lavc61.19.100 pcm_s16le
frame=  169 fps=0.0 q=-0.0 size=N/A time=00:00:07.04 bitrate=N/A speed=  14x    frame=  480 fps=467 q=-0.0 size=N/A time=00:00:20.02 bitrate=N/A speed=19.5x    frame=  762 fps=495 q=-0.0 size=N/A time=00:00:31.78 bitrate=N/A speed=20.6x    frame= 1051 fps=512 q=-0.0 size=N/A time=00:00:43.83 bitrate=N/A speed=21.4x    frame= 1312 fps=509 q=-0.0 size=N/A time=00:00:54.72 bitrate=N/A speed=21.2x    frame= 1588 fps=514 q=-0.0 size=N/A time=00:01:06.23 bitrate=N/A speed=21.4x    frame= 1862 fps=516 q=-0.0 size=N/A time=00:01:17.66 bitrate=N/A speed=21.5x    frame= 2127 fps=514 q=-0.0 size=N/A time=00:01:28.71 bitrate=N/A speed=21.4x    frame= 2399 fps=515 q=-0.0 size=N/A time=00:01:40.05 bitrate=N/A speed=21.5x    frame= 2686 fps=518 q=-0.0 size=N/A time=00:01:52.02 bitrate=N/A speed=21.6x    frame= 2943 fps=516 q=-0.0 size=N/A time=00:02:02.74 bitrate=N/A speed=21.5x    frame= 3212 fps=517 q=-0.0 size=N/A time=00:02:13.96 bitrate=N/A speed=21.6x    frame= 3466 fps=514 q=-0.0 size=N/A time=00:02:24.56 bitrate=N/A speed=21.5x    frame= 3746 fps=516 q=-0.0 size=N/A time=00:02:36.23 bitrate=N/A speed=21.5x    frame= 4019 fps=517 q=-0.0 size=N/A time=00:02:47.62 bitrate=N/A speed=21.6x    frame= 4295 fps=518 q=-0.0 size=N/A time=00:02:59.13 bitrate=N/A speed=21.6x    frame= 4574 fps=519 q=-0.0 size=N/A time=00:03:10.77 bitrate=N/A speed=21.7x    frame= 4812 fps=516 q=-0.0 size=N/A time=00:03:20.70 bitrate=N/A speed=21.5x    frame= 5091 fps=517 q=-0.0 size=N/A time=00:03:32.33 bitrate=N/A speed=21.6x    frame= 5336 fps=515 q=-0.0 size=N/A time=00:03:42.55 bitrate=N/A speed=21.5x    frame= 5544 fps=510 q=-0.0 size=N/A time=00:03:51.23 bitrate=N/A speed=21.3x    frame= 5745 fps=504 q=-0.0 size=N/A time=00:03:59.61 bitrate=N/A speed=  21x    frame= 6009 fps=505 q=-0.0 size=N/A time=00:04:10.62 bitrate=N/A speed=21.1x    frame= 6249 fps=504 q=-0.0 size=N/A time=00:04:20.63 bitrate=N/A speed=  21x    frame= 6461 fps=499 q=-0.0 size=N/A time=00:04:29.47 bitrate=N/A speed=20.8x    frame= 6724 fps=500 q=-0.0 size=N/A time=00:04:40.44 bitrate=N/A speed=20.9x    frame= 6960 fps=499 q=-0.0 size=N/A time=00:04:50.29 bitrate=N/A speed=20.8x    frame= 7241 fps=500 q=-0.0 size=N/A time=00:05:02.01 bitrate=N/A speed=20.9x    frame= 7518 fps=501 q=-0.0 size=N/A time=00:05:13.56 bitrate=N/A speed=20.9x    frame= 7789 fps=502 q=-0.0 size=N/A time=00:05:24.86 bitrate=N/A speed=20.9x    frame= 8054 fps=503 q=-0.0 size=N/A time=00:05:35.91 bitrate=N/A speed=  21x    frame= 8298 fps=502 q=-0.0 size=N/A time=00:05:46.09 bitrate=N/A speed=20.9x    frame= 8568 fps=502 q=-0.0 size=N/A time=00:05:57.35 bitrate=N/A speed=  21x    frame= 8848 fps=503 q=-0.0 size=N/A time=00:06:09.03 bitrate=N/A speed=  21x    frame= 9084 fps=502 q=-0.0 size=N/A time=00:06:18.87 bitrate=N/A speed=20.9x    frame= 9287 fps=499 q=-0.0 size=N/A time=00:06:27.34 bitrate=N/A speed=20.8x    frame= 9547 fps=500 q=-0.0 size=N/A time=00:06:38.18 bitrate=N/A speed=20.8x    frame= 9836 fps=501 q=-0.0 size=N/A time=00:06:50.24 bitrate=N/A speed=20.9x    frame=10111 fps=502 q=-0.0 size=N/A time=00:07:01.71 bitrate=N/A speed=20.9x    frame=10361 fps=501 q=-0.0 size=N/A time=00:07:12.14 bitrate=N/A speed=20.9x    frame=10565 fps=499 q=-0.0 size=N/A time=00:07:20.64 bitrate=N/A speed=20.8x    frame=10814 fps=499 q=-0.0 size=N/A time=00:07:31.03 bitrate=N/A speed=20.8x    frame=11078 fps=499 q=-0.0 size=N/A time=00:07:42.04 bitrate=N/A speed=20.8x    frame=11340 fps=499 q=-0.0 size=N/A time=00:07:52.97 bitrate=N/A speed=20.8x    frame=11616 fps=500 q=-0.0 size=N/A time=00:08:04.48 bitrate=N/A speed=20.8x    frame=11875 fps=500 q=-0.0 size=N/A time=00:08:15.28 bitrate=N/A speed=20.8x    frame=12138 fps=500 q=-0.0 size=N/A time=00:08:26.25 bitrate=N/A speed=20.9x    frame=12424 fps=501 q=-0.0 size=N/A time=00:08:38.18 bitrate=N/A speed=20.9x    frame=12695 fps=502 q=-0.0 size=N/A time=00:08:49.48 bitrate=N/A speed=20.9x    frame=12954 fps=502 q=-0.0 size=N/A time=00:09:00.28 bitrate=N/A speed=20.9x    frame=13180 fps=500 q=-0.0 size=N/A time=00:09:09.71 bitrate=N/A speed=20.9x    frame=13399 fps=499 q=-0.0 size=N/A time=00:09:18.84 bitrate=N/A speed=20.8x    frame=13586 fps=497 q=-0.0 size=N/A time=00:09:26.64 bitrate=N/A speed=20.7x    frame=13838 fps=496 q=-0.0 size=N/A time=00:09:37.15 bitrate=N/A speed=20.7x    frame=14111 fps=497 q=-0.0 size=N/A time=00:09:48.54 bitrate=N/A speed=20.7x    frame=14398 fps=498 q=-0.0 size=N/A time=00:10:00.51 bitrate=N/A speed=20.8x    frame=14650 fps=498 q=-0.0 size=N/A time=00:10:11.02 bitrate=N/A speed=20.8x    frame=14902 fps=498 q=-0.0 size=N/A time=00:10:21.53 bitrate=N/A speed=20.8x    frame=15166 fps=498 q=-0.0 size=N/A time=00:10:32.54 bitrate=N/A speed=20.8x    frame=15412 fps=497 q=-0.0 size=N/A time=00:10:42.80 bitrate=N/A speed=20.7x    frame=15682 fps=498 q=-0.0 size=N/A time=00:10:54.07 bitrate=N/A speed=20.8x    frame=15951 fps=498 q=-0.0 size=N/A time=00:11:05.28 bitrate=N/A speed=20.8x    frame=16202 fps=498 q=-0.0 size=N/A time=00:11:15.75 bitrate=N/A speed=20.8x    frame=16452 fps=498 q=-0.0 size=N/A time=00:11:26.18 bitrate=N/A speed=20.8x    frame=16698 fps=498 q=-0.0 size=N/A time=00:11:36.44 bitrate=N/A speed=20.8x    frame=16967 fps=498 q=-0.0 size=N/A time=00:11:47.66 bitrate=N/A speed=20.8x    frame=17239 fps=498 q=-0.0 size=N/A time=00:11:59.00 bitrate=N/A speed=20.8x    frame=17517 fps=499 q=-0.0 size=N/A time=00:12:10.60 bitrate=N/A speed=20.8x    frame=17789 fps=499 q=-0.0 size=N/A time=00:12:21.94 bitrate=N/A speed=20.8x    frame=18039 fps=499 q=-0.0 size=N/A time=00:12:32.37 bitrate=N/A speed=20.8x    frame=18291 fps=499 q=-0.0 size=N/A time=00:12:42.88 bitrate=N/A speed=20.8x    frame=18562 fps=499 q=-0.0 size=N/A time=00:12:54.19 bitrate=N/A speed=20.8x    frame=18815 fps=499 q=-0.0 size=N/A time=00:13:04.74 bitrate=N/A speed=20.8x    frame=19065 fps=499 q=-0.0 size=N/A time=00:13:15.16 bitrate=N/A speed=20.8x    frame=19274 fps=498 q=-0.0 size=N/A time=00:13:23.88 bitrate=N/A speed=20.8x    frame=19522 fps=498 q=-0.0 size=N/A time=00:13:34.23 bitrate=N/A speed=20.8x    frame=19750 fps=497 q=-0.0 size=N/A time=00:13:43.73 bitrate=N/A speed=20.7x    frame=20033 fps=498 q=-0.0 size=N/A time=00:13:55.54 bitrate=N/A speed=20.8x    frame=20290 fps=498 q=-0.0 size=N/A time=00:14:06.26 bitrate=N/A speed=20.8x    frame=20543 fps=498 q=-0.0 size=N/A time=00:14:16.81 bitrate=N/A speed=20.8x    frame=20744 fps=496 q=-0.0 size=N/A time=00:14:25.19 bitrate=N/A speed=20.7x    frame=21001 fps=496 q=-0.0 size=N/A time=00:14:35.91 bitrate=N/A speed=20.7x    frame=21263 fps=496 q=-0.0 size=N/A time=00:14:46.84 bitrate=N/A speed=20.7x    frame=21493 fps=496 q=-0.0 size=N/A time=00:14:56.43 bitrate=N/A speed=20.7x    frame=21761 fps=496 q=-0.0 size=N/A time=00:15:07.61 bitrate=N/A speed=20.7x    frame=22030 fps=496 q=-0.0 size=N/A time=00:15:18.83 bitrate=N/A speed=20.7x    frame=22222 fps=495 q=-0.0 size=N/A time=00:15:26.84 bitrate=N/A speed=20.6x    frame=22427 fps=494 q=-0.0 size=N/A time=00:15:35.39 bitrate=N/A speed=20.6x    frame=22648 fps=493 q=-0.0 size=N/A time=00:15:44.61 bitrate=N/A speed=20.6x    frame=22853 fps=492 q=-0.0 size=N/A time=00:15:53.16 bitrate=N/A speed=20.5x    frame=23094 fps=492 q=-0.0 size=N/A time=00:16:03.21 bitrate=N/A speed=20.5x    frame=23376 fps=492 q=-0.0 size=N/A time=00:16:14.97 bitrate=N/A speed=20.5x    frame=23614 fps=492 q=-0.0 size=N/A time=00:16:24.90 bitrate=N/A speed=20.5x    frame=23819 fps=491 q=-0.0 size=N/A time=00:16:33.45 bitrate=N/A speed=20.5x    frame=24042 fps=490 q=-0.0 size=N/A time=00:16:42.75 bitrate=N/A speed=20.5x    frame=24299 fps=490 q=-0.0 size=N/A time=00:16:53.47 bitrate=N/A speed=20.5x    frame=24536 fps=490 q=-0.0 size=N/A time=00:17:03.35 bitrate=N/A speed=20.4x    frame=24781 fps=490 q=-0.0 size=N/A time=00:17:13.57 bitrate=N/A speed=20.4x    frame=25051 fps=490 q=-0.0 size=N/A time=00:17:24.83 bitrate=N/A speed=20.5x    frame=25292 fps=490 q=-0.0 size=N/A time=00:17:34.88 bitrate=N/A speed=20.4x    frame=25553 fps=490 q=-0.0 size=N/A time=00:17:45.77 bitrate=N/A speed=20.4x    frame=25797 fps=490 q=-0.0 size=N/A time=00:17:55.94 bitrate=N/A speed=20.4x    frame=26034 fps=490 q=-0.0 size=N/A time=00:18:05.83 bitrate=N/A speed=20.4x    frame=26275 fps=490 q=-0.0 size=N/A time=00:18:15.88 bitrate=N/A speed=20.4x    frame=26539 fps=490 q=-0.0 size=N/A time=00:18:26.89 bitrate=N/A speed=20.4x    frame=26788 fps=490 q=-0.0 size=N/A time=00:18:37.28 bitrate=N/A speed=20.4x    frame=27055 fps=490 q=-0.0 size=N/A time=00:18:48.41 bitrate=N/A speed=20.4x    frame=27333 fps=491 q=-0.0 size=N/A time=00:19:00.01 bitrate=N/A speed=20.5x    frame=27597 fps=491 q=-0.0 size=N/A time=00:19:11.02 bitrate=N/A speed=20.5x    frame=27805 fps=490 q=-0.0 size=N/A time=00:19:19.70 bitrate=N/A speed=20.4x    frame=28024 fps=489 q=-0.0 size=N/A time=00:19:28.83 bitrate=N/A speed=20.4x    frame=28263 fps=489 q=-0.0 size=N/A time=00:19:38.80 bitrate=N/A speed=20.4x    frame=28535 fps=489 q=-0.0 size=N/A time=00:19:50.14 bitrate=N/A speed=20.4x    frame=28804 fps=490 q=-0.0 size=N/A time=00:20:01.36 bitrate=N/A speed=20.4x    frame=29093 fps=490 q=-0.0 size=N/A time=00:20:13.42 bitrate=N/A speed=20.4x    frame=29340 fps=490 q=-0.0 size=N/A time=00:20:23.72 bitrate=N/A speed=20.4x    frame=29574 fps=490 q=-0.0 size=N/A time=00:20:33.48 bitrate=N/A speed=20.4x    frame=29826 fps=490 q=-0.0 size=N/A time=00:20:43.99 bitrate=N/A speed=20.4x    frame=30084 fps=490 q=-0.0 size=N/A time=00:20:54.75 bitrate=N/A speed=20.4x    frame=30359 fps=490 q=-0.0 size=N/A time=00:21:06.22 bitrate=N/A speed=20.5x    frame=30622 fps=490 q=-0.0 size=N/A time=00:21:17.19 bitrate=N/A speed=20.5x    frame=30886 fps=491 q=-0.0 size=N/A time=00:21:28.20 bitrate=N/A speed=20.5x    frame=31166 fps=491 q=-0.0 size=N/A time=00:21:39.88 bitrate=N/A speed=20.5x    frame=31432 fps=491 q=-0.0 size=N/A time=00:21:50.97 bitrate=N/A speed=20.5x    frame=31705 fps=492 q=-0.0 size=N/A time=00:22:02.36 bitrate=N/A speed=20.5x    frame=31965 fps=492 q=-0.0 size=N/A time=00:22:13.20 bitrate=N/A speed=20.5x    frame=32230 fps=492 q=-0.0 size=N/A time=00:22:24.25 bitrate=N/A speed=20.5x    frame=32478 fps=492 q=-0.0 size=N/A time=00:22:34.60 bitrate=N/A speed=20.5x    frame=32733 fps=492 q=-0.0 size=N/A time=00:22:45.23 bitrate=N/A speed=20.5x    frame=32998 fps=492 q=-0.0 size=N/A time=00:22:56.29 bitrate=N/A speed=20.5x    frame=33262 fps=492 q=-0.0 size=N/A time=00:23:07.30 bitrate=N/A speed=20.5x    frame=33540 fps=492 q=-0.0 size=N/A time=00:23:18.89 bitrate=N/A speed=20.5x    frame=33810 fps=493 q=-0.0 size=N/A time=00:23:30.15 bitrate=N/A speed=20.6x    [Parsed_psnr_10 @ 00000211aebb79c0] PSNR y:48.080441 u:50.427619 v:49.824924 average:48.658975 min:40.008005 max:inf
[out#0/null @ 00000211a70d2280] video:14645KiB audio:266572KiB subtitle:0KiB other streams:0KiB global headers:0KiB muxing overhead: unknown
frame=34083 fps=493 q=-0.0 Lsize=N/A time=00:23:41.54 bitrate=N/A speed=20.6x    
